<svg width="1302" height="557" viewBox="0 0 1302 557" fill="none" xmlns="http://www.w3.org/2000/svg">
<g style="mix-blend-mode:color-dodge" opacity="0.3" clip-path="url(#clip0_571_19852)">
<path d="M1.98303 338.172H1299.64V351.237H1.98303V338.172Z" fill="#white"/>
<path d="M650.819 351.13C570.428 351.13 505.017 285.757 505.017 205.402C505.017 127.564 565.9 63.6362 643.622 59.8477L644.259 72.8978C573.51 76.3465 518.088 134.548 518.088 205.402C518.088 278.556 577.633 338.066 650.819 338.066C724.006 338.066 783.544 278.556 783.544 205.402C783.544 134.548 728.129 76.3465 657.38 72.8978L658.017 59.8477C735.739 63.6362 796.615 127.564 796.615 205.402C796.615 285.757 731.211 351.13 650.819 351.13Z" fill="#343435"/>
<path d="M579.449 17.5123C501.517 47.0324 449.698 121.574 449.698 205.413C449.698 316.264 539.919 406.444 650.82 406.444C761.722 406.444 851.944 316.264 851.944 205.413C851.944 121.574 800.117 47.0324 722.192 17.5123L702.763 147.667C719.233 162.423 728.608 183.26 728.608 205.413C728.608 248.287 693.714 283.165 650.82 283.165C607.927 283.165 573.026 248.287 573.026 205.413C573.026 183.26 582.4 162.423 598.878 147.667L579.449 17.5123ZM650.82 419.508C532.707 419.508 436.62 323.465 436.62 205.413C436.62 113.339 495.311 31.7916 582.661 2.49554L590.053 0.015625L612.889 153.003L609.996 155.353C594.813 167.709 586.097 185.95 586.097 205.413C586.097 241.079 615.131 270.1 650.82 270.1C686.51 270.1 715.537 241.079 715.537 205.413C715.537 185.95 706.828 167.709 691.638 155.353L688.752 153.003L711.588 0.015625L718.98 2.49554C806.33 31.7916 865.014 113.339 865.014 205.413C865.014 323.465 768.926 419.508 650.82 419.508Z" fill="#343435"/>
<path d="M650.819 282.965C410.362 282.965 179.227 251.472 -0.000183105 194.282L3.97812 181.832C181.954 238.631 411.678 269.901 650.819 269.901C889.961 269.901 1119.68 238.631 1297.66 181.832L1301.64 194.282C1122.41 251.472 891.277 282.965 650.819 282.965Z" fill="#343435"/>
<path d="M1297.66 507.564C1119.67 450.779 889.958 419.502 650.817 419.502C411.675 419.502 181.959 450.779 3.9755 507.564L-0.00274658 495.114C179.232 437.931 410.366 406.438 650.817 406.438C891.268 406.438 1122.4 437.931 1301.64 495.114L1297.66 507.564Z" fill="#343435"/>
<path d="M69.0183 132.957H82.089V556.419H69.0183V132.957Z" fill="#343435"/>
<path d="M1219.56 132.957H1232.63V556.419H1219.56V132.957Z" fill="#343435"/>
</g>
<defs>
<clipPath id="clip0_571_19852">
<rect width="1302" height="557" fill="white"/>
</clipPath>
</defs>
</svg>
