<svg width="95" height="229" viewBox="0 0 95 229" fill="none" xmlns="http://www.w3.org/2000/svg">
<g opacity="0.4">
<path d="M59.3845 194.135C59.7521 197.034 59.0471 200.123 56.9569 202.582C55.9392 203.822 54.5183 204.723 52.9739 205.297C51.3911 205.811 49.6822 205.883 48.0116 205.797C44.6678 205.58 41.387 204.539 38.3915 203.181C35.3878 201.796 32.6474 200.057 30.1155 197.864C29.0622 196.762 32.3923 196.691 30.346 194.374C28.2667 192.275 27.0515 188.672 27.3093 184.852C27.345 180.95 29.4737 176.979 32.4993 174.14C38.6192 168.274 47.6769 166.562 54.5594 167.43L53.7859 168.172C56.3123 168.364 59.5683 166.259 62.4788 166.998C62.4349 167.446 61.4583 167.479 62.0344 168.197C62.9835 166.938 67.3368 168.455 68.755 167.795C69.759 168.59 69.3941 169.587 70.6505 170.499C71.3171 170.128 71.9617 169.837 72.642 169.51C75.3988 168.414 78.1502 169.615 80.7424 171.252C83.3209 173.03 85.5099 175.251 88.2722 177.051C87.8498 176.998 87.1805 176.781 87.293 177.339C91.4213 180.312 94.0794 186.19 94.3976 192.307C94.4772 193.833 94.3976 195.377 94.3921 196.927C94.2522 198.46 94.0383 199.994 93.8654 201.527C93.6268 203.052 93.2126 204.561 92.8862 206.072C92.3183 207.507 91.9398 209.026 91.2403 210.384C91.062 209.73 90.475 208.98 89.652 209.307C90.1568 209.878 90.0251 211.008 89.567 212.395C88.9827 213.681 88.0857 215.253 86.9994 216.487C85.8995 216.438 85.2932 217.77 84.1274 219.056C83.5651 219.716 82.9588 220.494 82.2155 221.123C81.4474 221.706 80.5833 222.222 79.6479 222.527L79.7823 222.079C78.9045 223.483 77.7606 223.61 76.806 223.876C75.835 224.14 74.9462 224.289 74.137 225.495L72.0961 224.992C71.424 227.235 67.9513 225.077 65.9461 226.391L66.0914 226.781C64.0286 227.671 62.764 226.784 60.8274 227.347L60.6162 227.144C56.0023 228.111 53.2482 227.023 53.41 228.532C51.7505 227.386 57.8978 227.828 55.2671 226.166C51.5146 226.674 47.6769 226.984 43.8338 226.943C39.9715 227.048 35.9968 226.372 32.2661 225.272C24.7692 223.055 17.67 219.142 12.1399 213.582C11.3389 211.881 10.7272 210.961 10.8671 210.34C10.2911 209.84 9.41603 208.708 8.47788 207.628C7.56717 206.531 6.82927 205.325 6.15172 204.885C6.44798 205.311 6.23402 203.712 6.0228 202.939C5.5647 200.178 3.31809 200.683 3.2166 197.424C3.86123 198.543 4.37693 198.801 4.76371 198.271C3.98741 197.166 3.27694 195.742 2.93954 194.184C2.65152 192.621 2.35526 190.977 2.11386 189.428C2.30314 189.906 2.57471 190.639 2.96149 190.494C1.62833 187.149 3.10139 184.369 2.7969 181.384L3.42507 182.58C4.10536 180.304 3.82831 179.928 3.46896 179.576C3.09864 179.233 2.66797 178.933 3.41684 176.957C3.4141 177.993 3.78168 177.718 4.03679 177.966C3.91609 176.954 3.93529 175.798 4.26172 174.638C4.57718 173.481 4.8076 172.181 5.4248 171.046C6.42055 168.655 7.91006 166.553 8.88112 164.811C8.81529 165.058 9.01553 165.135 9.01553 165.135C11.5584 161.662 15.097 158.963 18.5067 155.784C20.0812 155.097 19.0581 157.479 22.5391 154.819C22.081 154.261 23.5924 153.143 24.8405 152.165C26.1161 151.244 27.1283 150.45 25.5894 150.403C29.0018 148.656 34.5621 146.463 36.5865 144.916C35.3137 146.141 38.9758 145.605 36.2491 147.117L38.7234 146.803C38.6658 147.466 36.4768 147.724 37.4616 148.024C38.8304 147.271 42.6488 144.74 43.9984 144.305C46.1957 142.258 47.8717 139.645 52.1455 137.573C50.335 138.952 53.8901 138.414 52.6091 139.238C54.2549 137.578 55.9474 135.938 57.7304 134.369C59.2008 133.753 58.419 135.226 60.4516 134.121C60.2212 133.83 61.099 133.308 61.6805 132.816C62.2566 132.712 68.0226 130.596 69.0156 131.777C69.7974 132.099 66.5578 132.629 68.3655 132.662C71.2074 132.027 71.254 131.566 74.1946 131.176L74.2687 131.338C76.1724 131.247 80.106 130.681 77.928 129.939C76.4988 129.89 78.4601 130.662 76.3726 130.346C77.7277 129.56 81.5406 129.301 84.8626 130.623C83.6748 130.42 83.7187 130.761 83.1865 130.989C85.4057 131.079 87.8827 131.986 89.8715 133.803C91.8849 135.597 93.2016 138.147 93.8764 140.664C94.4662 140.593 92.4363 139.005 92.4061 138.241C92.8231 139.889 93.0919 141.483 93.2839 143.05C93.4951 144.517 93.5911 146.432 93.2976 148.087C92.7874 151.47 90.9193 154.421 88.5191 155.877C89.1116 155.201 89.4463 156.114 89.2844 156.05C88.0555 157.166 87.271 157.43 86.6456 157.628C86.0366 157.856 85.5758 157.993 84.7062 158.579C84.3359 158.238 82.4376 159.9 80.2404 160.31C79.1733 160.851 79.6698 160.194 81.4776 159.782C80.1334 160.379 76.2026 161.189 72.1016 160.01C71.1333 159.661 70.0909 159.345 69.139 158.892C68.2283 158.403 67.2326 157.927 66.4343 157.38C64.8049 156.306 63.4142 155.135 62.3224 154.066C62.2264 154.396 58.7536 152.525 57.788 151.533L58.6576 151.376C57.9855 150.241 55.3028 148.263 55.5579 147.677C54.2439 146.955 56.3177 148.809 58.419 150.48C60.5092 152.159 62.6735 153.594 60.9262 152.577C60.5065 151.505 56.101 149.7 57.3738 149.573C55.3741 147.716 52.9986 146.369 51.6819 144.058C52.1208 144.676 53.8791 144.965 52.3402 143.437C49.6355 140.758 51.3555 142.877 49.0787 140.788L47.5617 139.568C46.9912 139.922 45.3288 137.034 45.7458 138.568C45.8253 137.842 41.7765 134.803 42.8244 134.339L43.7982 134.124C42.6296 132.995 41.3184 132.833 40.169 132.195C40.0785 131.992 39.9002 131.571 40.0538 131.533C38.9703 132.267 37.4232 128.733 35.3604 128.246C33.2482 125.633 29.054 123.127 28.1295 121.78C25.8198 120.915 23.7406 120.392 21.3403 119.571C21.8588 119.59 22.5528 119.725 22.7722 119.502C21.2745 118.735 20.7725 118.928 19.3214 118.963C19.6835 118.711 16.1833 118.004 14.2631 118.211C12.2167 119.293 13.2536 119.634 13.1988 120.085C12.1125 119.925 10.8068 120.86 9.90156 122.055C8.9305 123.303 8.53823 124.372 7.65495 125.386C7.67141 124.624 8.42302 122.467 7.35321 123.833C6.38489 124.468 6.20933 125.674 6.29711 126.916C6.36294 128.183 6.60434 129.505 6.59885 131.074C6.88139 130.761 7.16942 130.472 7.4547 130.211C7.22977 130.879 7.53974 131.948 7.97315 132.599C8.31604 133.319 8.7714 133.676 8.27215 133.88C8.45045 134.031 8.63973 134.264 8.89209 134.479C9.13349 134.701 9.31179 135.02 9.61079 135.179C10.1375 135.57 10.5901 135.8 10.6943 135.303C12.4115 136.768 15.9693 137.128 19.0882 136.834C22.2456 136.589 24.8488 135.822 26.7497 135.671C27.4273 135.215 29.2021 134.176 28.6013 134.05C27.2024 134.317 27.2161 135.38 26.5797 135.265C27.2243 134.957 27.2051 134.594 27.2133 134.47C28.7851 133.792 29.9455 132.907 29.0101 134.534C30.8205 133.569 31.3829 132.536 31.9562 131.426C32.535 130.302 33.1357 129.087 34.9818 127.15C35.1053 127.565 35.4783 127.35 36.4247 126.056L37.8155 123.275C40.1169 120.508 39.7027 122.135 40.2376 122.434C41.3157 120.832 42.8024 118.963 43.0027 117.996L45.0737 116.614C43.5623 117.611 45.8089 115.136 46.3218 114.35L45.8336 115.149C46.2615 115.034 47.5946 113.198 48.3435 112.319C47.8772 112.258 46.2176 113.907 45.3261 114.82C45.7869 113.882 46.8376 112.717 47.5453 111.536C47.6084 111.893 48.2338 111.365 48.9799 110.612C49.7398 109.859 50.7739 108.914 51.3774 108.37C52.8395 107.188 52.7243 106.641 53.1604 106.287C53.3607 106.468 55.7115 104.49 54.7295 105.682C54.2714 106.144 53.3771 106.342 52.6831 107.197C53.8462 106.644 53.9367 107.04 55.8816 105.35C57.415 104.138 54.8227 104.589 58.2955 103.105C57.4534 103.635 57.4342 103.968 56.8856 104.52C57.8978 103.968 59.0142 103.621 60.0813 103.212L60.0072 102.682C60.4845 102.602 60.2075 102.778 60.4324 102.75C60.778 102.253 62.0454 101.821 63.2551 101.327C64.484 100.882 65.7294 100.585 66.0558 100.178C67.8141 99.7687 69.8358 99.9171 71.5338 99.9583L71.2101 100.016C73.2866 100.162 76.0243 100.31 77.8759 100.368L77.7551 100.447C78.3257 100.61 79.2858 100.879 80.2843 101.162C81.2801 101.547 82.3444 101.824 83.0987 102.181C84.4072 103.173 84.2975 103.784 84.3112 104.253C84.3167 104.487 84.3441 104.701 84.5526 104.965C84.7748 105.218 85.1533 105.531 85.787 106.188C86.3246 106.809 86.6538 107.499 86.9802 108.081C87.3506 108.68 87.5097 109.09 87.7044 109.389C88.0857 109.991 88.4094 110.087 88.4478 109.417C88.8922 112.212 88.8812 115.586 87.4109 118.562C86.0037 121.541 83.2359 123.715 80.5504 124.339C79.8152 124.792 80.3776 124.756 78.7015 125.399C74.3702 126.265 69.7508 125.41 66.1326 123.429C65.2685 122.89 64.4099 122.352 63.598 121.794C62.8546 121.167 62.1359 120.538 61.4583 119.912C60.2651 118.713 59.294 117.567 58.4491 116.419C60.0593 117.677 58.8963 116.152 59.0636 115.913C57.5439 115.075 57.9389 114.179 56.9679 114.319C56.7731 114.765 56.496 114.806 57.7908 116.306C54.617 113.575 50.0305 109.238 48.6233 107.375C49.3228 108.315 48.5739 107.815 47.8141 107.301C48.5383 106.966 46.3602 104.806 44.462 103.481L43.9161 103.608L43.1042 102.272C42.3416 101.797 41.7436 102.363 40.3007 100.568C40.3254 100.357 40.3391 100.137 40.1005 99.7797C38.0376 98.5569 35.0641 97.1004 33.303 95.5753C32.8779 95.0339 32.4527 94.5228 32.0275 94.0804C31.0537 93.605 29.9592 93.8468 31.0071 94.3469C30.7355 94.2205 30.4584 94.0694 30.2856 93.965C30.1402 93.9457 30.0086 93.877 29.8659 93.8028C27.7784 93.7039 26.64 94.314 25.8253 94.3827C25.0737 95.4599 24.8049 96.713 24.8625 98.2161C24.8707 98.5898 24.9365 98.9883 24.9859 99.3895C25.0737 99.7962 25.1615 100.274 25.252 100.439C25.444 100.895 25.658 101.058 26.0256 101.319C26.736 101.854 28.5794 102.357 30.5517 102.486C31.5584 102.541 32.5843 102.58 33.6377 102.533C34.3372 102.552 34.1863 102.412 34.3948 102.443C34.5402 102.456 34.8172 102.231 35.0394 102.19L35.0943 102.574C35.7609 102.454 35.9062 102.05 35.9008 101.868C35.92 101.632 35.8569 101.497 36.411 101.148C36.1778 101.849 38.0157 100.777 37.1763 102.135C39.593 100.467 39.3598 98.8811 40.4461 97.1746C40.2321 96.6223 39.7082 98.708 39.4366 97.977C39.5189 97.6638 42.3635 94.6327 41.9905 93.7369C42.6982 93.212 42.8299 94.0886 42.8381 94.63L43.6391 92.7119C45.8089 91.14 41.8369 98.381 44.2096 96.8366L45.1862 95.1851C46.9144 94.1271 43.0685 99.9116 46.0448 96.0782C46.8979 94.1051 46.8924 91.9782 45.5949 93.3522C47.751 89.5599 45.0737 90.6536 47.6276 86.6718C48.7029 85.8281 45.7238 89.9501 46.7607 89.5242C48.4724 87.9936 48.8181 85.5314 50.0991 83.9568C48.648 85.6743 48.958 83.6435 49.6492 82.319C51.3472 80.4421 49.3914 84.0942 51.4103 81.2005C51.3637 80.4531 53.0233 77.4935 51.0811 79.6754C50.9934 77.9112 53.4512 76.8532 54.8173 74.2563C56.2985 73.8002 52.8532 78.8922 56.5125 75.6358C55.9337 75.6853 57.1187 74.2371 58.3751 73.1022C59.6259 72.036 60.8768 71.0412 59.1843 71.3132C61.6449 70.4751 61.8369 71.1841 60.3227 72.1376C61.8835 71.7557 63.7625 70.934 65.5346 70.9038C67.2792 70.8076 68.7166 71.3132 68.8071 72.1321C69.2515 72.0689 69.7151 72.0195 70.1897 71.9865C70.9385 72.6707 72.0029 73.693 72.6831 75.1467C73.5939 76.1277 74.9023 77.9524 75.3824 79.7688C75.8789 81.5715 75.6869 83.1076 75.1135 82.962C75.1684 83.3907 74.949 85.1439 74.4826 86.4355C74.052 87.7188 73.5692 88.6146 74.6554 87.7078C75.8652 85.9518 75.8652 84.6657 75.9447 83.7507C75.9804 82.7971 76.0105 82.1238 76.4494 80.8927C76.1477 82.4234 76.0791 83.8496 75.8981 85.2813C75.6923 86.6938 75.3988 88.098 74.7844 89.2274L74.1288 89.3428C73.7749 89.9886 72.9465 90.9284 72.0385 91.7171C71.1388 92.5168 70.1677 93.1653 69.844 93.605C70.7931 92.7778 70.0251 92.8877 68.8373 93.3274C68.4478 93.7451 68.0391 94.193 67.559 94.5805C64.1576 95.7429 63.9162 95.2043 63.565 94.99C63.3867 94.8526 63.2304 94.7014 62.8354 94.6135C62.6214 94.5695 62.3965 94.5503 61.985 94.542C61.5077 94.5036 60.8439 94.5256 60.095 94.4349C60.8164 94.4541 61.8232 94.3744 62.38 94.248C62.9424 94.1271 63.5513 93.9732 64.1877 93.7781C63.7763 93.899 63.1069 93.8605 62.3745 93.7754C61.9082 93.7259 61.3898 93.6737 60.8247 93.616C60.2596 93.5308 59.6506 93.4401 58.984 93.3412C57.8621 93.7479 55.8048 93.7506 54.8749 93.7918C52.3046 92.6459 54.1342 92.5745 51.6956 91.7034C52.6941 92.1266 53.7886 92.5223 54.916 92.863C55.4372 92.9235 53.3524 90.8322 51.1497 88.9361C49.5587 87.8919 46.8732 86.6608 48.7632 88.8784C47.644 87.8892 46.5578 86.3118 47.6687 86.702C45.3343 84.8334 47.4246 87.422 45.3426 86.059C45.2438 85.8172 45.167 85.6248 44.4757 84.7345C44.3413 84.5448 44.2042 84.3497 44.0588 84.1464C43.9683 83.9815 43.875 83.8111 43.779 83.638C43.5979 83.3 43.3648 82.9015 43.2413 82.5938C42.6022 81.228 42.1935 80.0244 41.8862 79.0351C42.6817 79.538 43.4992 80.0821 44.3441 80.6647L43.3044 79.1368C45.3618 80.5712 43.1892 77.7738 44.7034 78.3399C44.1356 77.2242 43.0164 76.2321 42.1386 75.5342C42.5912 77.3451 41.5817 76.8092 40.4982 76.3283C39.9523 76.048 39.3982 75.9024 38.984 75.8584C38.5726 75.8639 38.3174 76.0645 38.194 76.3888C38.0733 76.3338 37.98 76.2651 37.9032 76.1882C37.8511 76.1689 37.8237 76.1415 37.8017 76.092C37.7414 75.9546 37.7771 75.8914 37.8155 75.776C37.8703 75.471 37.917 75.1769 37.8731 74.8554C37.8347 74.2206 37.1955 73.8359 36.6798 75.5479C36.8801 75.6166 37.0008 75.9738 37.1544 76.1744C37.2257 76.2789 37.2998 76.3613 37.3491 76.3833C37.3628 76.4712 37.6564 76.103 37.7414 76.0343C37.6372 75.9986 37.4616 76.2184 37.3766 76.3448C37.3464 76.4465 37.3903 76.4877 37.4287 76.5674C37.5521 76.9741 38.0486 77.2269 37.6125 77.2489C37.4012 77.0401 37.0748 76.9191 36.6387 76.9604C36.3013 76.9356 35.7279 77.1665 35.6155 76.2459C35.9803 76.496 36.2601 75.7403 36.4357 75.5067C36.4384 75.4902 36.4494 75.4819 36.4494 75.4819C36.4247 75.471 36.3945 75.46 36.3945 75.46C36.0379 75.4077 35.8185 75.1907 35.5469 75.0697C35.3028 74.9653 34.8886 74.9846 34.5182 75.8364C34.3509 76.3805 34.3098 77.0813 34.4305 77.5622C34.5566 78.0458 34.8447 78.208 35.1629 78.0513C35.824 77.9606 35.0339 76.8367 35.8048 77.3478C35.9447 78.0238 35.8377 78.1942 35.8953 78.4223C35.9309 78.6284 36.1367 78.7548 36.7127 78.2767C36.3863 78.1612 36.5399 77.9579 36.7374 77.8067C36.8279 77.749 36.8773 77.7188 36.9212 77.6913C36.8801 77.6996 37.0008 77.6968 37.5658 76.9439C37.4698 77.0895 37.3574 77.2324 37.2257 77.3726C37.2888 77.6171 37.7386 77.5539 37.8785 77.2791C38.1062 77.0483 38.0898 76.8147 39.2583 76.9933L39.7274 77.3698C39.9112 77.4962 39.8289 77.6199 39.9167 77.76C39.9469 77.8562 39.9853 77.9469 40.0319 78.0321C40.0264 78.1448 40.0017 78.2272 39.9578 78.2739C39.8892 78.3151 39.9112 78.3426 39.7329 78.3618C39.5409 78.3673 39.3324 78.3756 39.1184 78.3838C38.7563 78.3289 38.375 78.2712 38.0376 78.2189C37.788 78.1283 37.5603 78.1063 37.3793 78.1805C37.2394 78.2354 37.1352 78.3811 37.0748 78.7136C38.002 79.1258 39.3132 78.6834 39.9935 78.6889C40.0977 78.6889 40.2294 78.7053 40.394 78.7301C40.3089 78.862 40.1553 78.9279 40.0182 78.9939C39.9469 79.0131 39.8865 79.0378 39.8289 79.0791C39.892 79.0846 39.9551 79.1588 40.0401 79.2659C40.2074 79.4775 40.5174 79.9117 40.9673 79.9392C41.483 79.9942 41.8999 79.8375 42.4376 78.6009C43.1124 77.1417 42.3004 77.9634 41.9246 77.5787C43.8037 74.8499 43.7625 73.2588 44.5004 71.0879C44.9283 71.5001 45.3041 70.4888 45.5181 69.7606C45.7184 69.0516 45.8775 68.546 46.0997 69.9227C45.6525 70.4229 45.0381 71.9947 44.366 73.5748C43.7186 75.1742 43.0521 76.6581 43.085 77.477C43.9792 77.2901 43.5348 77.8947 42.882 78.5982C42.5802 78.8977 42.2374 79.2412 41.9384 79.538C41.771 79.7908 41.6064 80.0409 41.6339 80.4036C42.465 79.9392 43.2358 79.5023 43.8174 79.5188C44.3962 79.4638 44.8543 79.7166 45.3508 79.7523C46.0064 79.0214 46.2341 78.0183 46.4124 77.4605C45.957 76.7213 45.3343 77.7985 44.6348 77.4028C46.7964 74.4954 47.5837 70.5575 47.0817 68.7603C47.5617 67.859 48.3737 68.1118 48.1789 69.5298C48.4999 67.6034 48.2695 65.2924 47.8004 63.3825C47.2929 61.4259 46.2396 59.7167 44.8433 58.3372C45.2356 59.6782 44.6019 58.917 43.565 58.2575C43.2688 58.0706 43.1865 57.936 42.7284 57.7162C42.2812 57.4991 41.8753 57.3122 41.5571 57.1885C40.9261 56.944 40.6189 56.9412 41.1456 57.5073C41.5598 57.7684 41.9658 58.0267 42.358 58.2767C42.7503 58.5378 42.7256 58.6752 42.9094 58.8731C43.1535 59.2385 43.3895 59.5683 43.4361 59.8596C43.5458 60.4394 43.362 60.7637 42.8765 60.6648C42.1221 59.9036 43.2962 60.2745 43.1014 59.7771C42.7092 59.681 42.4431 59.5078 42.2319 59.288L42.081 59.1176C42.0152 59.0517 41.8286 58.9445 41.7134 58.8593L40.9673 58.3125C40.4708 57.9607 40.0676 57.576 39.4641 57.3149C38.8085 57.0841 38.076 56.8972 37.0693 56.7763C36.9843 56.6609 36.8883 56.529 36.7868 56.3889C36.8417 56.5922 36.8965 56.7818 36.9294 56.8615C38.9127 57.3122 39.9688 57.5101 40.4132 57.609C40.9179 57.6667 41.0222 57.4908 41.0194 57.238C41.0112 56.7076 40.6052 55.9794 41.5324 55.8777C40.372 55.5755 39.7631 55.4051 39.5573 55.2869C39.4284 54.9572 39.7658 55.0011 39.9523 54.8363C40.1389 54.6549 40.1471 54.3581 39.2556 53.6491C38.2187 53.083 37.2037 52.5692 36.2409 52.2257C35.7636 52.036 35.2836 51.8986 34.8502 51.7887C35.2863 51.7008 35.7142 51.6596 36.1038 51.5387L36.9706 51.0385C37.2394 50.8242 37.4726 50.4724 37.714 50.2004C38.4381 49.4694 39.1843 48.4252 39.7905 46.889C40.1334 46.6665 40.5833 46.4851 40.8356 46.224C41.088 45.9685 41.2882 45.6827 41.4775 45.4024C41.8204 44.8583 42.0371 44.6082 42.2483 44.1246C42.69 43.2754 43.0713 42.3851 43.3648 41.4673C43.9984 39.6646 44.3605 37.8536 44.7199 36.4522C45.5949 34.5863 46.2752 36.1361 46.8924 33.9707C47.3121 31.3711 45.5236 35.7075 46.6208 31.9537L46.7498 32.3521C46.7909 31.1925 48.2859 25.2926 46.9857 24.0422L47.8909 25.3118C48.0335 24.5863 47.8552 23.8938 47.7949 23.2838C48.1131 23.2755 48.4532 22.4291 48.5959 23.641C49.3914 21.231 48.7056 18.5105 48.6809 15.8697L48.1213 17.5707C47.7675 13.053 48.231 10.0137 47.8607 5.64438L48.338 5.74606L47.9211 3.15745C48.4066 3.76475 48.5163 1.34927 48.0527 0L49.652 6.7216C49.4792 8.62596 48.9497 4.68533 48.5547 5.8972C48.2228 6.92495 48.4615 10.9727 48.9689 11.6213C48.9717 10.0604 48.8702 9.98622 48.6425 8.78809C49.3091 8.24399 49.3749 10.6128 49.8906 11.7752C49.8303 10.959 49.9894 9.78286 49.7645 9.61798C50.1732 11.2118 50.3131 12.8414 50.3762 15.5344C50.0717 13.7125 49.9318 16.5264 49.7096 15.8367C50.3597 16.0483 50.634 18.6287 50.3405 21.9592C49.46 24.2895 50.6148 28.2659 49.8632 32.1543C49.3256 30.467 48.9635 28.4198 48.8592 26.073C48.2777 28.4308 48.6562 28.7468 47.9705 31.0881C48.3435 32.3109 49.15 33.27 48.851 36.5099L48.2612 36.5566C47.8607 39.442 48.7824 39.7113 47.3066 43.2947C46.8677 44.3664 46.278 45.4106 45.7321 46.3944C45.4742 46.8396 45.0436 47.4441 44.8927 47.631C44.6952 47.8976 44.5306 48.1614 44.3029 48.3647C43.1453 49.7662 41.5817 50.6401 40.4324 50.9451C40.0621 51.0358 39.7521 51.066 39.4421 51.1237C39.2885 51.1484 39.1404 51.1704 38.9977 51.1952L39.3681 51.2474C39.8755 51.3243 40.3172 51.4287 40.7396 51.5277L39.8399 51.7887C41.5955 51.7942 42.9204 52.0415 44.1438 52.5417C44.569 52.7285 45.0051 52.9072 45.3947 53.1627L45.9927 53.52L46.865 54.163C47.463 54.5724 48.0171 55.0588 48.541 55.5425C49.0896 55.9904 49.5669 56.4603 49.9949 56.9082C51.9973 59.8623 53.1961 63.6381 53.2345 66.9164C53.2893 67.7271 53.2921 68.5405 53.1824 69.3649C53.0644 70.1289 52.9245 70.8433 52.7325 71.4671C52.3704 72.7367 51.8766 73.7342 51.339 74.413C50.4941 76.9109 49.4435 79.2659 47.9074 81.4561C47.1064 82.5608 46.2642 83.5556 44.9887 84.5586C43.7159 85.5094 42.2072 86.0947 40.6189 86.2321C38.8331 86.2898 37.4589 86.2871 35.7307 85.8611C34.1013 85.5066 32.2881 84.6767 30.8973 83.1461C29.4846 81.6375 28.7385 79.5133 28.744 77.5347C28.7275 75.5726 29.3667 73.5446 30.5599 71.8986C30.3103 72.7697 30.2061 73.6518 30.25 74.4872C30.3761 73.2066 30.7574 72.8768 31.1332 72.6735C31.5173 72.4537 31.9013 72.2915 32.6913 71.5001C32.6913 71.5001 32.7105 71.4836 32.7242 71.4754C32.7023 71.4836 32.6776 71.4864 32.6776 71.4864C31.8026 71.9508 31.7834 71.6897 32.2387 71.0164C32.4444 70.7636 32.7901 70.4174 33.1028 70.1069C33.4018 69.7799 33.7749 69.4473 34.2494 69.1698C35.0806 68.5295 36.1614 68.1338 36.7978 67.859C38.7317 67.7546 40.7725 68.4141 42.2511 69.4144C43.7022 70.4174 44.8433 71.5633 45.8884 72.679C47.8827 74.8801 49.6383 77.1884 50.9056 78.2217L50.5051 78.7081C54.126 80.4173 57.3711 85.666 60.9207 86.691C61.088 86.8559 61.3102 87.1115 61.6394 87.2736C61.9685 87.466 62.6571 87.5264 63.2606 87.411C64.1877 86.7652 64.6458 86.3475 65.167 85.8721C65.6443 85.405 66.2231 84.8059 66.2423 83.7781C66.5276 83.1214 66.6867 82.1019 66.3575 81.1291C66.064 80.148 65.3042 79.2852 64.5334 78.8812C63.6309 78.8757 62.8134 79.1752 62.1606 79.5847C61.4556 80.0216 61.0715 80.4311 60.4681 81.1126C59.7878 81.871 58.8908 83.0417 58.0788 84.1958C57.2477 85.35 56.4357 86.5811 55.6182 87.8232C52.321 92.8245 49.2597 98.1886 45.2712 103.608L44.1603 103.943C43.1974 105.284 42.0591 106.63 40.5421 107.886C39.0828 109.117 36.7703 110.332 34.2083 110.478C30.6943 110.563 26.8814 110.574 22.7859 108.353C20.767 107.268 18.8139 105.012 18.2132 102.552C17.895 101.277 17.8401 100.335 17.8209 99.3455C17.8154 98.3453 17.873 97.3313 18.0952 96.3145C18.4793 94.292 19.4284 92.2832 20.8383 90.7471C22.2264 89.1917 23.9655 88.142 25.6223 87.5209C25.2932 87.9963 24.9969 88.447 24.7445 88.9306C26.4206 88.2904 28.1679 87.9551 29.726 87.7875C31.029 87.7572 32.1674 87.8699 32.7407 87.9633C33.3579 88.0128 33.6679 87.9276 33.432 87.6253C37.1653 89.4747 41.3157 92.0221 42.5555 93.9732C45.0655 96.265 46.0146 96.3008 48.1926 98.0622C52.9382 102.835 54.7432 104.501 59.3681 108.724L58.2955 107.606C57.6591 107.274 57.3437 107.518 58.4244 108.642C60.2788 110.076 64.3935 114.781 63.4937 112.377C65.787 115.092 68.1405 117.213 71.0428 118.296C73.9066 119.301 76.7292 119.233 78.8469 118.587C78.3724 118.461 79.3846 117.991 79.5574 117.529C80.9673 116.474 82.0591 114.984 82.2292 113.042C82.21 112.547 82.2785 112.072 82.2292 111.577C82.1414 111.077 82.0536 110.588 81.9658 110.107C81.7299 109.686 81.4803 109.197 80.8439 108.856C80.5147 108.37 81.8835 109.101 80.7863 108.081C79.9222 107.636 80.5339 108.381 79.4641 107.903C76.3479 106.573 72.129 106.163 68.1598 106.702C64.1603 107.238 60.3007 108.834 57.3053 111.192C55.9556 112.234 54.8227 113.498 53.6158 114.745C52.4116 116.144 51.2101 117.548 50.058 119.018C47.7318 121.942 45.5209 125.026 43.1755 128.175C40.8192 131.305 38.3202 134.556 35.0888 137.46C31.8931 140.381 27.6659 142.626 23.4169 143.564L23.5568 143.278C17.9718 145.451 10.4008 143.679 4.98042 141.005C4.37144 140.423 3.15625 139.211 2.48967 138.131C1.78744 137.045 1.47472 136.229 1.98768 136.658C0.199174 134.339 -0.382365 130.362 0.243065 126.705C0.574981 124.85 1.10166 123.033 1.98768 121.14C2.91485 119.2 4.17669 117.592 5.39737 116.166C4.86795 116.606 4.63478 116.955 4.16297 117.6C6.92528 115.001 9.96739 113.228 13.3634 112.335C16.7292 111.431 20.3638 111.492 23.7433 112.64C23.0109 112.574 21.7216 112.363 21.4528 112.64C23.9655 113.558 28.0692 113.223 28.7769 115.149C30.1183 115.773 30.0387 115.012 29.1774 114.644C35.8486 118.059 41.184 123.058 46.2834 127.851C51.3719 132.698 56.2409 137.644 61.1209 142.121C64.2426 145.669 63.9875 146.127 63.6556 146.358C63.3428 146.52 62.967 146.507 66.1491 148.395C66.4343 148.994 66.8293 148.232 66.7224 148.535C67.9568 149.18 68.5493 150.194 69.1582 150.989C69.7508 151.835 70.3268 152.574 71.2924 152.607C71.0921 151.461 72.5378 152.725 72.8093 152.187C74.8337 153.396 76.1285 153.759 77.3601 154.086C78.5589 154.185 79.8015 154.218 81.2554 153.193L81.1868 153.734C82.8985 152.376 84.3853 150.81 85.274 149.024C85.7321 148.15 85.9543 147.224 85.9653 146.399C85.9214 145.99 85.9406 145.597 85.7623 145.267L85.5566 144.792C85.4496 144.575 85.3316 144.352 85.2109 144.146C85.071 142.736 84.7391 141.522 84.281 140.714C83.8147 139.898 83.3264 139.453 82.6022 139.054C81.1895 138.23 78.2791 137.999 75.2178 138.45C68.9882 139.332 62.2922 142.008 55.9502 145.025C52.7105 146.57 49.7123 148.202 46.3932 150.021L36.6798 155.33C30.4337 158.867 24.4894 162.519 20.095 166.806C17.7853 168.82 16.1366 171.107 14.6855 173.429C13.399 175.825 12.4526 178.353 11.9836 181.112C11.6873 182.464 11.7038 183.956 11.5172 185.363C11.5941 186.853 11.5365 188.383 11.6736 189.826C12.0302 192.662 12.5267 195.415 13.6404 197.858C14.5456 200.4 16.1696 202.552 17.8291 204.676C19.6725 206.693 21.7792 208.565 24.2124 210.189C26.6812 211.769 29.3584 213.184 32.2195 214.335C35.0696 215.446 38.1364 216.35 40.9399 216.855C41.5269 217.133 42.0481 217.377 42.5171 217.6C43.1728 217.781 43.757 217.946 44.2947 218.095C45.3755 218.364 46.2917 218.565 47.2161 218.622C49.065 218.743 51.0263 218.567 54.5539 217.999C54.2824 218.32 53.8325 218.405 54.3235 218.674C54.6115 217.122 59.2968 218.177 59.7576 216.531C69.5121 215.61 77.3327 211.931 80.6162 206.256C80.2212 207.254 80.8357 208.526 81.6394 207.372C81.579 206.734 81.494 206.122 81.409 205.547L81.9274 205.575C82.2347 204.671 81.6504 203.31 80.9042 203.997C81.0332 203.464 81.1813 202.95 81.3486 202.445C81.5214 201.945 81.5352 201.313 81.6586 200.769C81.9302 199.768 81.9768 198.218 82.1469 196.886C82.38 195.473 82.1825 194.314 82.295 193.027C82.284 192.423 82.1716 191.895 82.1414 191.329C82.103 190.763 82.081 190.194 81.9219 189.746C81.6312 187.666 80.8796 186.292 79.9908 184.91C79.0472 183.572 77.7579 182.233 75.7554 181.041C73.7776 179.848 71.3198 178.782 68.5932 177.911C67.2024 177.493 65.7842 177.095 64.2783 176.77C63.5513 176.586 62.7723 176.446 62.0042 176.3C61.2389 176.155 60.4105 175.984 59.8728 175.94C55.0669 175.141 49.7836 176.122 45.7101 178.466C43.5732 179.136 41.3842 180.81 40.202 182.574C39.7329 183.459 39.2693 184.305 39.294 184.937C39.1596 185.267 39.3571 185.509 39.2803 185.743C39.3379 186.215 39.3735 186.685 39.3735 187.114C38.803 189.411 38.6713 190.689 40.1361 192.769C40.885 193.747 42.1084 194.674 43.5047 195.418C44.868 196.168 46.7772 196.688 47.3917 196.861C48.3161 197.07 49.3996 197.133 50.3021 196.647C51.2128 196.245 51.9727 195.333 52.3896 194.536C53.7831 191.876 54.414 187.053 53.6624 183.665C53.6624 183.665 54.0355 183.756 54.6198 184.011C55.2123 184.261 56.0078 184.704 56.8005 185.479C58.3751 186.976 60.0127 189.95 59.3845 194.135Z" fill="#D6D6D7"/>
</g>
</svg>
