<svg width="130" height="88" viewBox="0 0 130 88" fill="none" xmlns="http://www.w3.org/2000/svg">
<path d="M63.0787 58.2903C63.0657 58.2903 63.0537 58.2867 63.0407 58.2867C62.8387 58.2825 62.6471 58.242 62.4654 58.1781C62.2218 58.0923 62.001 57.9598 61.8157 57.7868C61.8006 57.7727 61.7824 57.7618 61.7678 57.7473C61.7532 57.7327 61.7423 57.7145 61.7282 57.6995C61.4986 57.4547 61.3315 57.1513 61.2612 56.8114C61.2368 56.6909 61.2238 56.5662 61.2238 56.4389C61.2238 56.0559 61.3409 55.6999 61.5408 55.4043C61.7621 55.078 62.0874 54.8327 62.4654 54.6991C62.6471 54.6352 62.8387 54.5947 63.0407 54.5905C63.0537 54.5905 63.0657 54.5869 63.0787 54.5869C64.1017 54.5869 64.9336 55.4178 64.9336 56.4389C64.9336 57.4594 64.1017 58.2903 63.0787 58.2903ZM44.5296 36.5117V27.7409C44.5296 23.9045 47.7901 22.1871 51.0215 22.1871C54.2534 22.1871 57.5139 23.9045 57.5139 27.7409V29.6739C52.3949 30.3686 47.8422 32.867 44.5296 36.5117ZM92.3027 16.6328C89.415 16.6328 87.0316 17.5905 85.3423 19.2845C83.6534 17.5905 81.2696 16.6328 78.3823 16.6328C72.4662 16.6328 68.6434 20.6298 68.6434 26.8154V56.4378C68.6429 53.3757 66.1466 50.8846 63.0787 50.8846V27.7409C63.0787 21.3043 58.008 16.6328 51.0215 16.6328C44.0355 16.6328 38.9648 21.3043 38.9648 27.7409V61.0672C38.9648 61.5785 39.3798 61.9932 39.892 61.9932H43.6019C44.1141 61.9932 44.5296 61.5785 44.5296 61.0672V50.8846C44.5296 43.1302 50.1354 36.6629 57.5139 35.2968V61.0672C57.5139 61.5785 57.9289 61.9932 58.4411 61.9932H63.0787C66.1466 61.9932 68.6429 59.5015 68.6434 56.4394V61.0672C68.6434 61.5785 69.0588 61.9932 69.5706 61.9932H73.2804C73.7927 61.9932 74.2081 61.5785 74.2081 61.0672V26.8154C74.2081 23.7444 75.6127 22.1871 78.3823 22.1871C81.1519 22.1871 82.5565 23.7444 82.5565 26.8154V61.0672C82.5565 61.5785 82.9715 61.9932 83.4837 61.9932H87.2008C87.7131 61.9932 88.1286 61.5785 88.1286 61.0672V26.8154C88.1286 23.7444 89.5326 22.1871 92.3027 22.1871C95.0724 22.1871 96.477 23.7444 96.477 26.8154V61.0672C96.477 61.5785 96.8919 61.9932 97.4041 61.9932H101.114C101.626 61.9932 102.042 61.5785 102.042 61.0672V26.8154C102.042 20.6298 98.2189 16.6328 92.3027 16.6328Z" fill="white"/>
<path d="M124.299 27.7414V50.8851C124.299 54.722 121.039 56.4394 117.807 56.4394C114.575 56.4394 111.315 54.722 111.315 50.8851V27.7414C111.315 23.905 114.575 22.1876 117.807 22.1876C121.039 22.1876 124.299 23.905 124.299 27.7414ZM117.807 16.6328C110.821 16.6328 105.75 21.3048 105.75 27.7414V50.8851C105.75 57.3217 110.821 61.9937 117.807 61.9937C124.793 61.9937 129.864 57.3217 129.864 50.8851V27.7414C129.864 21.3048 124.793 16.6328 117.807 16.6328Z" fill="white"/>
<path d="M25.9786 22.1871C25.9786 21.166 26.8106 20.3357 27.8335 20.3357C28.0407 20.3357 28.237 20.3778 28.4234 20.4406C28.4666 20.4552 28.5129 20.464 28.5546 20.4817C28.5728 20.489 28.5879 20.5009 28.6051 20.5087C29.2423 20.8023 29.6885 21.442 29.6885 22.1871C29.6885 22.9323 29.2428 23.5719 28.6056 23.8655C28.5879 23.8738 28.5728 23.8853 28.5546 23.893C28.3635 23.9741 28.1537 24.0162 27.9361 24.0282C27.9017 24.0302 27.8684 24.0385 27.8335 24.0385C26.8106 24.0385 25.9786 23.2082 25.9786 22.1871ZM33.3983 22.1861V17.5583C33.3983 17.0475 32.9828 16.6328 32.4711 16.6328H27.8335C24.7651 16.6328 22.2688 19.1244 22.2688 22.1871C22.2688 25.2498 24.7651 27.7414 27.8335 27.7414V51.81C27.8335 54.8815 26.429 56.4389 23.6593 56.4389C20.8897 56.4389 19.4851 54.8815 19.4851 51.81V17.5583C19.4851 17.0475 19.0697 16.6328 18.5574 16.6328H14.8476C14.5269 16.6328 14.2437 16.796 14.0776 17.0433C13.974 17.1925 13.9131 17.3733 13.9131 17.5681V51.8199C13.9131 54.8909 12.5085 56.4482 9.73893 56.4482C6.96932 56.4482 5.56473 54.8909 5.56473 51.8199V17.5681C5.56473 17.0568 5.14981 16.6422 4.63754 16.6422H0.927716C0.415442 16.6422 0 17.0568 0 17.5681V51.8199C0 58.0055 3.82279 62.0025 9.73893 62.0025C12.6293 62.0025 15.0147 61.0433 16.7041 59.3462C18.3929 61.037 20.7747 61.9932 23.6593 61.9932C29.5755 61.9932 33.3983 57.9962 33.3983 51.81V22.1861Z" fill="white"/>
<path d="M43.7446 5.07137C44.5724 5.07137 45.699 5.38002 46.1628 6.28362C46.8584 5.93081 47.6091 5.5676 48.4925 5.25895C47.6205 3.4954 45.8645 2.86719 43.8217 2.86719C40.3435 2.86719 38.9629 4.64114 38.9629 7.13215C38.9629 9.65589 40.3878 11.21 43.8217 11.21C45.4668 11.21 47.6643 10.7912 48.4816 8.81828C47.6643 8.46599 46.8474 8.09135 46.1628 7.72762C45.8203 8.59797 45.1471 8.99495 43.9102 8.99495C42.3645 8.99495 41.7018 8.16825 41.6466 7.13215C41.5914 6.10748 42.1656 5.07137 43.7446 5.07137Z" fill="#E88736"/>
<path d="M56.0394 3.21094V6.20857H51.9761V3.21094H49.3809C49.4912 5.8781 49.4912 8.54525 49.3809 11.2119H51.9761V8.21426H56.0394V11.2119H58.6335C58.5237 8.54525 58.5237 5.8781 58.6335 3.21094H56.0394Z" fill="#E88736"/>
<path d="M70.3338 7.91652C70.7092 6.90277 71.0845 5.88901 71.4713 4.88564C71.8467 5.88901 72.2335 6.90277 72.5974 7.91652H70.3338ZM69.4727 3.21094L66.3809 11.2119H69.152C69.329 10.6938 69.517 10.1649 69.7044 9.63591H73.2268C73.4257 10.1758 73.6136 10.6938 73.7896 11.2119H76.6498L73.536 3.21094H69.4727Z" fill="#E88736"/>
<path d="M83.5767 3.22656L83.7646 9.4094L81.0814 3.22656H77.0176C77.1285 5.89372 77.1285 8.54945 77.0176 11.2166H79.8554L79.6565 5.19952L82.3288 11.2166H86.2817C86.1719 8.54945 86.1719 5.89372 86.2817 3.22656H83.5767Z" fill="#E88736"/>
<path d="M91.7195 8.32257H93.8727C93.4088 8.82971 92.68 8.96169 92.1167 8.96169C90.571 8.96169 89.9088 8.16825 89.8531 7.13267C89.7984 6.10748 90.3722 5.07137 91.9511 5.07137C92.7794 5.07137 93.5744 5.33585 94.171 5.93133C94.7452 5.62268 95.5511 5.18153 96.3903 4.76272C95.3522 3.44032 93.8951 2.86719 92.0287 2.86719C88.5506 2.86719 87.1699 4.64166 87.1699 7.13267C87.1699 9.65641 88.7713 11.21 91.0021 11.21C92.5811 11.21 93.8066 10.5818 94.259 9.14927L94.4906 11.0999H96.4346V6.53719H91.7195V8.32257Z" fill="#E88736"/>
<path d="M107.677 3.21094L106.838 8.42366L105.877 3.21094H102.123L101.262 11.2119H104.121L104.287 5.5471L105.414 11.2119H108.307L109.411 5.50346L109.587 11.2119H112.447L111.586 3.21094H107.677Z" fill="#E88736"/>
<path d="M116.846 7.91652C117.222 6.90277 117.597 5.88901 117.984 4.88564C118.359 5.88901 118.746 6.90277 119.11 7.91652H116.846ZM115.985 3.21094L112.894 11.2119H115.665C115.842 10.6938 116.03 10.1649 116.217 9.63591H119.739C119.938 10.1758 120.126 10.6938 120.302 11.2119H123.162L120.049 3.21094H115.985Z" fill="#E88736"/>
<path d="M62.7283 1.72666C63.3764 1.72666 63.9043 2.25303 63.9043 2.90046C63.9043 3.54789 63.3764 4.07426 62.7283 4.07426C62.0796 4.07426 61.5517 3.54789 61.5517 2.90046C61.5517 2.25303 62.0796 1.72666 62.7283 1.72666ZM62.7283 0C61.1259 0 59.8223 1.3011 59.8223 2.90046C59.8223 3.98177 60.4194 4.92486 61.3003 5.42317C61.3362 7.353 61.3195 9.28283 61.2393 11.2121H64.2167C64.1365 9.28283 64.1198 7.353 64.1558 5.42369C65.0366 4.92486 65.6338 3.98177 65.6338 2.90046C65.6338 1.3011 64.3307 0 62.7283 0Z" fill="#E88736"/>
<path d="M126.958 1.72666C127.607 1.72666 128.135 2.25303 128.135 2.90046C128.135 3.54789 127.607 4.07426 126.958 4.07426C126.31 4.07426 125.782 3.54789 125.782 2.90046C125.782 2.25303 126.31 1.72666 126.958 1.72666ZM129.864 2.90046C129.864 1.3011 128.561 0 126.958 0C125.356 0 124.053 1.3011 124.053 2.90046C124.053 3.97969 124.648 4.92174 125.527 5.42109C125.563 7.35144 125.55 9.28179 125.47 11.2121H128.447C128.367 9.28179 128.354 7.35092 128.391 5.42057C129.269 4.92122 129.864 3.97969 129.864 2.90046Z" fill="#E88736"/>
<path d="M84.8714 78.1789C84.7412 78.3083 84.5923 78.3728 84.4242 78.3728C84.2487 78.3728 84.0967 78.3083 83.9671 78.1789C83.8369 78.0496 83.7724 77.8973 83.7724 77.7222C83.7724 77.5544 83.8369 77.4058 83.9671 77.2764C84.0967 77.147 84.2487 77.0821 84.4242 77.0821C84.5923 77.0821 84.7412 77.147 84.8714 77.2764C85.001 77.4058 85.0656 77.5544 85.0656 77.7222C85.0656 77.8973 85.001 78.0496 84.8714 78.1789ZM92.1114 75.875C91.6278 75.875 91.1894 76.008 90.7969 76.2735C90.4043 76.5396 90.0436 76.9402 89.714 77.4754C89.384 78.0106 89.0721 78.6882 88.778 79.5066L86.8117 84.9749V78.8243C86.8117 77.8869 86.6029 77.1605 86.1859 76.6466C85.7684 76.1322 85.1817 75.875 84.4242 75.875C83.9124 75.875 83.4741 76.0569 83.1102 76.4211C82.7452 76.7848 82.5625 77.2187 82.5625 77.7222C82.5625 78.2257 82.7473 78.6601 83.1149 79.0238C83.4829 79.3881 83.9192 79.5699 84.4242 79.5699C84.635 79.5699 84.8485 79.5346 85.0656 79.4645V87.8718H87.0215L89.714 80.2626C90.0227 79.3881 90.3539 78.6861 90.7073 78.1582C91.0619 77.6297 91.3862 77.3652 91.6803 77.3652C91.9469 77.3652 92.1603 77.53 92.3217 77.8589C92.4831 78.1873 92.5638 78.6601 92.5638 79.2753V87.8718H94.3094V79.2753C94.3094 78.1841 94.1147 77.3445 93.7258 76.7568C93.3364 76.1691 92.7986 75.875 92.1114 75.875Z" fill="#9A88B8"/>
<path d="M86.6724 73.6C86.75 73.2367 86.976 72.9406 87.3508 72.713C87.7261 72.4859 88.2113 72.3721 88.8074 72.3721C90.1048 72.3721 91.0434 72.7816 91.6255 73.6H86.6724ZM93.5715 70.7031H92.3199V72.7395C91.3521 71.7392 90.1813 71.2383 88.8074 71.2383C87.5877 71.2383 86.6974 71.5568 86.1362 72.1939C85.5755 72.8304 85.2949 73.6072 85.2949 74.5238V74.7441H93.5715V70.7031Z" fill="#9A88B8"/>
<path d="M92.3256 65.7188H93.5771V69.4345H92.3256V65.7188Z" fill="#9A88B8"/>
<path d="M99.3631 85.6687C99.4927 85.5393 99.6453 85.4749 99.8202 85.4749C99.9883 85.4749 100.137 85.5393 100.267 85.6687C100.397 85.7986 100.462 85.9472 100.462 86.115C100.462 86.2901 100.397 86.4418 100.267 86.5712C100.137 86.7011 99.9883 86.7656 99.8202 86.7656C99.6453 86.7656 99.4927 86.7011 99.3631 86.5712C99.2329 86.4418 99.1684 86.2901 99.1684 86.115C99.1684 85.9472 99.2329 85.7986 99.3631 85.6687ZM105.888 73.7608C105.888 74.2367 105.774 74.681 105.547 75.0941C105.319 75.5067 104.98 75.8917 104.532 76.2487C103.907 75.9899 103.105 75.86 102.123 75.86C100.616 75.86 99.424 76.1473 98.5478 76.721C97.6716 77.2946 97.111 78.1551 96.8652 79.3029L98.5692 79.5336C98.7514 78.8483 99.1158 78.3339 99.6624 77.9909C100.21 77.648 100.935 77.4765 101.84 77.4765C103.003 77.4765 103.808 77.7181 104.253 78.2008C104.698 78.6835 104.921 79.345 104.921 80.1847V82.9345C104.577 82.1509 104.072 81.5248 103.407 81.0556C102.74 80.5874 102.011 80.3525 101.219 80.3525C100.027 80.3525 99.0965 80.6882 98.427 81.3601C97.7575 82.0319 97.4228 82.921 97.4228 84.0262V85.0233C97.4228 85.9612 97.631 86.6855 98.0486 87.1963C98.4656 87.7066 99.0565 87.9622 99.8202 87.9622C100.325 87.9622 100.76 87.7804 101.124 87.4166C101.489 87.0529 101.671 86.619 101.671 86.115C101.671 85.611 101.489 85.1771 101.124 84.8134C100.76 84.4497 100.325 84.2678 99.8202 84.2678C99.6031 84.2678 99.386 84.3026 99.1684 84.3728V84.0574C99.1684 83.3231 99.3365 82.7703 99.6734 82.3993C100.01 82.0283 100.518 81.8428 101.198 81.8428C101.969 81.8428 102.695 82.207 103.375 82.9345C104.055 83.6625 104.57 84.565 104.921 85.6427V87.8573H106.667V80.0584C106.667 78.7012 106.344 77.6828 105.699 77.0047C106.344 76.5495 106.828 76.0543 107.15 75.5191C107.473 74.9839 107.634 74.4118 107.634 73.8029V73.6875H105.888V73.7608Z" fill="#9A88B8"/>
<path d="M113.46 75.875C110.922 75.875 109.383 77.0228 108.844 79.3179L110.547 79.5486C110.933 78.1774 111.809 77.4915 113.176 77.4915C113.955 77.4915 114.554 77.7404 114.974 78.2366C115.395 78.7339 115.605 79.3881 115.605 80.1992V87.8723H117.351V80.1368C117.351 77.2956 116.054 75.875 113.46 75.875Z" fill="#9A88B8"/>
<path d="M121.918 78.179C121.788 78.3083 121.639 78.3728 121.471 78.3728C121.295 78.3728 121.143 78.3083 121.013 78.179C120.883 78.0496 120.819 77.8973 120.819 77.7222C120.819 77.5544 120.883 77.4058 121.013 77.2764C121.143 77.147 121.295 77.0821 121.471 77.0821C121.639 77.0821 121.788 77.147 121.918 77.2764C122.047 77.4058 122.112 77.5544 122.112 77.7222C122.112 77.8973 122.047 78.0496 121.918 78.179ZM122.112 85.8458C122.112 86.1331 122.049 86.3607 121.923 86.5286C121.796 86.6964 121.639 86.7806 121.45 86.7806C121.282 86.7806 121.134 86.7068 121.008 86.5603C120.882 86.4132 120.819 86.2412 120.819 86.0453C120.819 85.7658 120.938 85.5106 121.176 85.2794C121.415 85.0482 121.727 84.9017 122.112 84.8388V85.8458ZM128.117 75.98V86.3498C126.581 85.1677 125.162 84.3207 123.858 83.81V78.8243C123.858 77.9004 123.648 77.1787 123.227 76.657C122.806 76.1358 122.221 75.875 121.471 75.875C120.959 75.875 120.52 76.0569 120.157 76.4211C119.792 76.7848 119.609 77.2187 119.609 77.7222C119.609 78.2257 119.794 78.6601 120.161 79.0238C120.529 79.3881 120.966 79.5699 121.471 79.5699C121.681 79.5699 121.895 79.5273 122.112 79.4437V83.6629C121.355 83.7824 120.748 84.0635 120.293 84.5078C119.837 84.9521 119.609 85.4649 119.609 86.0453C119.609 86.6476 119.774 87.1199 120.104 87.4628C120.433 87.8058 120.882 87.9767 121.45 87.9767C123.055 87.9767 123.858 86.9905 123.858 85.017C125.148 85.5907 126.54 86.5426 128.033 87.8718H129.863V75.98H128.117Z" fill="#9A88B8"/>
</svg>
